<svg width="26" height="27" viewBox="0 0 26 27" fill="none" xmlns="http://www.w3.org/2000/svg">
<rect x="0.000732422" y="0.85614" width="26" height="26" rx="7.1128" fill="#F4F4F4"/>
<path d="M11.6875 13.8543L8.8383 11.0061C8.47905 10.647 8.47905 10.0525 8.8383 9.69342C9.19755 9.33429 9.79218 9.33429 10.1514 9.69342L13.0007 12.5417L15.8499 9.69342C16.2092 9.33429 16.8038 9.33429 17.1631 9.69342C17.5223 10.0525 17.5223 10.647 17.1631 11.0061L14.3138 13.8543L17.1631 16.7026C17.5223 17.0617 17.5223 17.6561 17.1631 18.0153C16.9772 18.201 16.7419 18.2877 16.5065 18.2877C16.2711 18.2877 16.0357 18.201 15.8499 18.0153L13.0007 15.167L10.1514 18.0153C9.96561 18.201 9.73024 18.2877 9.49486 18.2877C9.25949 18.2877 9.02412 18.201 8.8383 18.0153C8.47905 17.6561 8.47905 17.0617 8.8383 16.7026L11.6875 13.8543Z" fill="#84929E"/>
</svg>
